<?xml version="1.0" encoding="utf-8"?>
<!-- Generator: Adobe Illustrator 25.4.1, SVG Export Plug-In . SVG Version: 6.00 Build 0)  -->
<svg version="1.1" id="Ebene_1" xmlns="http://www.w3.org/2000/svg" xmlns:xlink="http://www.w3.org/1999/xlink" x="0px" y="0px"
	 viewBox="0 0 120.4 12.3" style="enable-background:new 0 0 120.4 12.3;" xml:space="preserve">
<style type="text/css">
	.st0{fill:#66CC33;}
</style>
	<path class="st0" d="M6.4,2.6C4.8,2.6,4,3,4,4c0,0.8,0.7,1.2,2,1.2h4.1c3.3,0,4.7,0.8,4.7,3.1c0,2.3-1.7,3.3-5.2,3.3H1.4v-2h7.8
	c1.6,0,2.4-0.3,2.4-1.3c0-1-0.7-1.3-2.2-1.3H5.7c-3.4,0-4.9-1-4.9-3.2c0-2.4,1.7-3.4,5.2-3.4h8.1v2H6.4z M19.7,5.1h8.6V7h-8.6
	c0,2,1.1,2.7,3.5,2.7h5.1v1.9h-5.3c-1.8,0-3.2-0.1-4.6-1c-1.5-0.9-2.3-2.4-2.3-4.4c0-3.9,2.2-5.7,7-5.7h5.2v1.9h-5.1
	C21,2.5,19.8,3.3,19.7,5.1z M35,0.6l6.1,8l0-8l3,0l0,11.1h-3.6l-6.4-8.4l0,8.4l-3.1,0V0.6H35z M51.9,2.6c-1.6,0-2.4,0.4-2.4,1.5
	c0,0.8,0.7,1.2,2,1.2h4.1c3.3,0,4.7,0.8,4.7,3.1c0,2.3-1.7,3.3-5.2,3.3h-8.3v-2h7.8c1.6,0,2.4-0.3,2.4-1.3c0-1-0.7-1.3-2.2-1.3h-3.7
	c-3.4,0-4.9-1-4.9-3.2c0-2.4,1.7-3.4,5.2-3.4h8.1v2H51.9z M62.6,11.7V0.6h3.3v11.1H62.6z M75.9,2.6c1.9,0,2.8,0.2,2.8,1.4
	c0,1.1-0.9,1.4-2.8,1.4h-3.8V2.6H75.9z M69,0.6v11.1h3.1V7.3h3.7l3.3,4.4h3.5L78.8,7c1.9-0.3,3-1.4,3-3.1c0-2.3-1.7-3.3-5.2-3.3H69z
	 M84.4,11.7V0.6h3.3v11.1H84.4z M97.2,2.3c2.7,0,4,1.3,4,3.9c0,2.6-1.3,3.9-4,3.9c-2.8,0-4-1.3-4-4C93.2,3.5,94.5,2.3,97.2,2.3z
	 M89.8,6c0,4,2.3,5.9,7.4,5.9c5,0,7.4-1.9,7.4-5.8s-2.3-5.8-7.4-5.8C92.2,0.4,89.8,2.2,89.8,6z M110.6,0.6l6.1,8l0-8h3v11.1h-3.6
	l-6.4-8.4l0,8.4h-3.1V0.6H110.6z"/>
</svg>
